<?xml version="1.0" standalone="no"?>
<!DOCTYPE svg PUBLIC "-//W3C//DTD SVG 20010904//EN"
 "http://www.w3.org/TR/2001/REC-SVG-20010904/DTD/svg10.dtd">
<svg version="1.0" xmlns="http://www.w3.org/2000/svg"
 width="200.000000pt" height="200.000000pt" viewBox="0 0 200.000000 200.000000"
 preserveAspectRatio="xMidYMid meet">
<metadata>
Created by potrace 1.14, written by Peter Selinger 2001-2017
</metadata>
<g transform="translate(0.000000,200.000000) scale(0.100000,-0.100000)"
fill="#000000" stroke="none">
<path d="M240 1405 l0 -55 40 -6 40 -7 0 -328 c0 -360 0 -359 -61 -359 -29 0
-29 -1 -29 -55 l0 -55 190 0 190 0 0 54 0 53 -37 7 c-21 3 -50 6 -65 6 l-28 0
0 135 0 135 173 2 172 3 3 67 3 68 -173 2 -173 3 -3 123 -3 123 143 -3 143 -3
3 -45 3 -45 69 3 70 4 0 114 0 114 -335 0 -335 0 0 -55z"/>
<path d="M1090 1405 l0 -55 35 0 c20 0 38 -6 40 -12 7 -18 -212 -648 -232
-670 -9 -10 -29 -18 -45 -18 -27 0 -28 -1 -28 -55 l0 -55 160 0 160 0 0 54 c0
57 -7 66 -56 66 -27 0 -27 -2 1 80 l12 35 167 3 166 2 11 -27 c31 -81 23 -103
-38 -103 l-33 0 0 -55 0 -55 180 0 180 0 0 54 0 55 -42 8 -43 9 -140 397 -140
397 -157 0 -158 0 0 -55z m280 -284 c33 -103 60 -193 60 -200 0 -8 -39 -11
-125 -11 -83 0 -125 4 -125 11 0 12 123 389 127 389 1 0 29 -85 63 -189z"/>
</g>
</svg>
